<svg width="20" height="20" viewBox="0 0 20 20" fill="none" xmlns="http://www.w3.org/2000/svg">
<path d="M10.0049 20.0028C4.48204 20.0028 0.004879 15.5257 0.004879 10.0028C0.004879 4.47996 4.48204 0.00280762 10.0049 0.00280762C15.5277 0.00280762 20.0049 4.47996 20.0049 10.0028C20.0049 15.5257 15.5277 20.0028 10.0049 20.0028ZM8.0549 9.00276C8.2865 7.86169 9.2954 7.00281 10.5049 7.00281C11.1201 7.00281 11.6834 7.22502 12.1189 7.59357L13.8198 6.45957C12.9973 5.56408 11.8166 5.00281 10.5049 5.00281C8.1886 5.00281 6.28107 6.75283 6.03235 9.00276H5.00488V11.0028H6.03235C6.28107 13.2528 8.1886 15.0028 10.5049 15.0028C11.8166 15.0028 12.9973 14.4416 13.8198 13.5461L12.1188 12.4121C11.6833 12.7807 11.1201 13.0028 10.5049 13.0028C9.2954 13.0028 8.2865 12.144 8.0549 11.0028H13.0049V9.00276H8.0549Z" fill="black"/>
</svg>
